<svg width="256" height="256" viewBox="0 0 256 256" fill="none" xmlns="http://www.w3.org/2000/svg">
  <path d="M256 128C256 57.3076 198.692 0 128 0C57.3076 0 0 57.3076 0 128C0 198.692 57.3076 256 128 256C198.692 256 256 198.692 256 128Z" fill="#00A3FF"/>
  <path opacity="0.6" d="M175.255 115.02L176.545 116.998C191.092 139.313 187.843 168.538 168.734 187.261C157.492 198.276 142.759 203.784 128.025 203.786C128.025 203.786 128.025 203.786 175.255 115.02Z" fill="white"/>
  <path opacity="0.2" d="M128.019 141.998L175.249 115.02C128.02 203.786 128.019 203.786 128.019 203.786C128.019 184.453 128.019 162.3 128.019 141.998Z" fill="white"/>
  <path d="M80.745 115.02L79.4551 116.998C64.9085 139.313 68.1571 168.538 87.2659 187.261C98.5075 198.276 113.241 203.784 127.975 203.786C127.975 203.786 127.975 203.786 80.745 115.02Z" fill="white"/>
  <path opacity="0.6" d="M127.96 141.998L80.7306 115.02C127.961 203.786 127.96 203.786 127.96 203.786C127.96 184.453 127.96 162.3 127.96 141.998Z" fill="white"/>
  <path opacity="0.2" d="M128.037 81.7296V128.26L168.721 105.01L128.037 81.7296Z" fill="white"/>
  <path opacity="0.6" d="M128.025 81.7296L87.3126 105.009L128.025 128.26V81.7296Z" fill="white"/>
  <path d="M128.025 42.5978L87.3126 105.024L128.025 81.6787V42.5978Z" fill="white"/>
  <path opacity="0.6" d="M128.037 81.6723L168.752 105.018L128.037 42.561V81.6723Z" fill="white"/>
</svg>
