<svg width="96" height="96" viewBox="0 0 96 96" fill="none" xmlns="http://www.w3.org/2000/svg">
<circle cx="48" cy="48" r="48" fill="url(#paint0_linear_1_1567)"/>
<path fill-rule="evenodd" clip-rule="evenodd" d="M47.8576 79.8748C38.5159 79.8677 30.991 77.6261 25.7333 73.5997C20.4125 69.5251 17.5898 63.7428 17.5898 57.1999C17.5898 50.8956 20.4063 46.3496 23.5931 43.2768C26.0906 40.8686 28.8466 39.3264 30.7656 38.4393C30.3317 37.1074 29.7902 35.3639 29.3058 33.5631C28.6577 31.1533 28.0218 28.326 28.0218 26.2542C28.0218 23.8019 28.5565 21.3391 29.9981 19.4254C31.5212 17.4036 33.8141 16.3204 36.5726 16.3204C38.7284 16.3204 40.5588 17.1201 41.9917 18.4997C43.3614 19.8183 44.273 21.5695 44.9024 23.395C46.0084 26.6028 46.4391 30.6329 46.5599 34.6547H49.2021C49.3229 30.6329 49.7535 26.6028 50.8596 23.395C51.489 21.5695 52.4006 19.8183 53.7703 18.4997C55.2032 17.1201 57.0335 16.3204 59.1894 16.3204C61.9479 16.3204 64.2408 17.4036 65.7639 19.4254C67.2055 21.3391 67.7402 23.8019 67.7402 26.2542C67.7402 28.326 67.1043 31.1533 66.4561 33.5631C65.9717 35.3639 65.4303 37.1074 64.9964 38.4393C66.9154 39.3264 69.6714 40.8686 72.1689 43.2768C75.3557 46.3496 78.1721 50.8956 78.1721 57.1999C78.1721 63.7428 75.3495 69.5251 70.0287 73.5997C64.771 77.6261 57.2461 79.8677 47.9044 79.8748H47.8576Z" fill="#633001"/>
<path d="M36.5727 18.6527C32.5325 18.6527 30.6727 21.6976 30.6727 25.9087C30.6727 29.2558 32.8336 35.9593 33.7202 38.5688C33.9196 39.1558 33.6063 39.7989 33.0348 40.0265C29.7967 41.3163 20.2407 46.0388 20.2407 56.8544C20.2407 68.2476 29.9518 76.8378 47.8598 76.8515C47.8669 76.8515 47.874 76.8515 47.8811 76.8515C47.8883 76.8515 47.8954 76.8515 47.9025 76.8515C65.8105 76.8378 75.5215 68.2476 75.5215 56.8544C75.5215 46.0388 65.9655 41.3163 62.7274 40.0265C62.156 39.7989 61.8426 39.1558 62.042 38.5688C62.9286 35.9593 65.0896 29.2558 65.0896 25.9087C65.0896 21.6976 63.2298 18.6527 59.1895 18.6527C53.3738 18.6527 51.924 26.975 51.8206 35.9068C51.8137 36.5031 51.3366 36.9869 50.7463 36.9869H45.016C44.4257 36.9869 43.9485 36.5031 43.9416 35.9068C43.8382 26.975 42.3885 18.6527 36.5727 18.6527Z" fill="#D1884F"/>
<path d="M47.9025 73.2019C34.7446 73.2019 20.2635 66.0867 20.2408 56.8761C20.2407 56.8905 20.2407 56.9048 20.2407 56.9192C20.2407 68.3214 29.9672 76.9163 47.9025 76.9163C65.8378 76.9163 75.5643 68.3214 75.5643 56.9192C75.5643 56.9048 75.5643 56.8905 75.5642 56.8761C75.5416 66.0867 61.0604 73.2019 47.9025 73.2019Z" fill="#FEDC90"/>
<path d="M40.5914 54.0471C40.5914 57.1568 39.1366 58.7764 37.3421 58.7764C35.5475 58.7764 34.0928 57.1568 34.0928 54.0471C34.0928 50.9374 35.5475 49.3177 37.3421 49.3177C39.1366 49.3177 40.5914 50.9374 40.5914 54.0471Z" fill="#633001"/>
<path d="M61.712 54.0471C61.712 57.1568 60.2572 58.7764 58.4627 58.7764C56.6681 58.7764 55.2134 57.1568 55.2134 54.0471C55.2134 50.9374 56.6681 49.3177 58.4627 49.3177C60.2572 49.3177 61.712 50.9374 61.712 54.0471Z" fill="#633001"/>
<defs>
<linearGradient id="paint0_linear_1_1567" x1="48" y1="0" x2="48" y2="96" gradientUnits="userSpaceOnUse">
<stop stop-color="#54DADE"/>
<stop offset="0.762157" stop-color="#24C7D6"/>
</linearGradient>
</defs>
</svg>
