<svg width="256" height="256" viewBox="0 0 256 256" fill="none" xmlns="http://www.w3.org/2000/svg">
  <mask id="mask0_19_16" style="mask-type:luminance" maskUnits="userSpaceOnUse" x="0" y="0" width="256" height="256">
    <path d="M256 0H0V256H256V0Z" fill="white" />
  </mask>
  <g mask="url(#mask0_19_16)">
    <path d="M128 220.8C186.52 220.8 233.6 173.72 233.6 115.2C233.6 56.6797 186.52 9.59998 128 9.59998C69.4797 9.59998 22.4 56.6797 22.4 115.2C22.4 173.72 69.4797 220.8 128 220.8Z" fill="#6E54FF" />
    <path d="M104.269 32C113.844 32 122.033 37.921 125.384 46.3002C126.027 46.4822 126.487 46.8333 126.738 47.0749C127.347 47.6624 127.547 48.3469 127.547 48.3469C127.606 48.521 127.637 48.6624 127.65 48.7219C127.677 48.8522 127.69 48.9565 127.694 48.9907C127.7 49.0384 127.704 49.079 127.706 49.103C127.71 49.1507 127.714 49.1923 127.715 49.2157C127.719 49.2643 127.72 49.3117 127.722 49.3501C127.725 49.4314 127.729 49.5322 127.731 49.6438C127.736 49.8611 127.74 50.1571 127.74 50.5187C127.743 50.5987 127.747 50.6832 127.75 50.7718C127.886 50.5606 128.133 50.2378 128.515 49.9405C130.718 39.687 139.832 32.0003 150.744 32H242.828C251.108 32 256.217 41.0419 251.944 48.1344L142.381 229.963C136.179 240.254 121.27 240.291 115.016 230.031L4.10622 48.0845C-0.190472 41.0355 4.88245 32.0003 13.1375 32H104.269Z" fill="white" stroke="#6E54FF" stroke-width="2" />
    <path d="M126.4 41.6C106.532 41.6 57.6 89.3926 57.6 108.8C57.6 128.206 106.532 176 126.4 176C146.267 176 195.2 128.206 195.2 108.8C195.2 89.3936 146.268 41.6 126.4 41.6ZM115.678 147.227C107.3 144.997 84.7753 106.511 87.0585 98.3273C89.3421 90.144 128.743 68.143 137.122 70.3734C145.5 72.6032 168.025 111.088 165.742 119.272C163.459 127.456 124.056 149.457 115.678 147.227Z" fill="#6E54FF" />
  </g>
</svg>
