<svg width="256" height="256" viewBox="0 0 600.34 600.34" xmlns="http://www.w3.org/2000/svg">
  <circle cx="300.17" cy="300.17" r="300.17" fill="#001c5c"/>
  <path d="M359.99,478.9h65.3s60.02-148.8,60.02-148.8l-128.89-45.68h0l-61.98-23.93h.06c-39.83-17.27-90.96-43.5-94.97-66.17-8.32-74.95,132.5-100.71,132.5-100.71,0,0-203.26,7.75-185.81,119.88,6.6,41.83,70.07,69.49,136.58,95.03,71.22,27.32,139.1,51.59,139.1,51.59l-29.38,79.42-149.49-.57s-99.79-4.42-98.19-92.73c-48.32,95.49,29.5,132.73,99.45,132.73l115.69-.06Z" fill="#ffffff"/>
  <path d="M403.37,215.22c-42.01,35.64-84.93,33.8-84.93,33.8,70.87,71.5,179.96-40.17,76.72-83.15,12.8,7.29,31.96,31.05,8.21,49.35h0Z" fill="#ffffff"/>
</svg>
