<svg width="256" height="256" viewBox="0 0 256 256" fill="none" xmlns="http://www.w3.org/2000/svg">
  <mask id="mask0_19_2" style="mask-type:luminance" maskUnits="userSpaceOnUse" x="0" y="0" width="256" height="256">
    <path d="M256 0H0V256H256V0Z" fill="white" />
  </mask>
  <g mask="url(#mask0_19_2)">
    <path d="M128 220.8C186.52 220.8 233.6 173.72 233.6 115.2C233.6 56.6797 186.52 9.59998 128 9.59998C69.4797 9.59998 22.4 56.6797 22.4 115.2C22.4 173.72 69.4797 220.8 128 220.8Z" fill="#23A061" />
    <path d="M104.269 32C113.844 32 122.033 37.921 125.384 46.3002C126.027 46.4822 126.487 46.8333 126.738 47.0749C127.347 47.6624 127.547 48.3469 127.547 48.3469C127.606 48.521 127.637 48.6624 127.65 48.7219C127.677 48.8522 127.69 48.9565 127.694 48.9907C127.7 49.0384 127.704 49.079 127.706 49.103C127.71 49.1507 127.714 49.1923 127.715 49.2157C127.719 49.2643 127.72 49.3117 127.722 49.3501C127.725 49.4314 127.729 49.5322 127.731 49.6438C127.736 49.8611 127.74 50.1571 127.74 50.5187C127.743 50.5987 127.747 50.6832 127.75 50.7718C127.886 50.5606 128.133 50.2378 128.515 49.9405C130.718 39.687 139.832 32.0003 150.744 32H242.828C251.108 32 256.217 41.0419 251.944 48.1344L142.381 229.963C136.179 240.254 121.27 240.291 115.016 230.031L4.10622 48.0845C-0.190472 41.0355 4.88245 32.0003 13.1375 32H104.269Z" fill="white" stroke="#23A061" stroke-width="2" />
    <mask id="mask1_19_2" style="mask-type:luminance" maskUnits="userSpaceOnUse" x="51" y="41" width="154" height="155">
      <path d="M204.8 41.6H51.2V195.2H204.8V41.6Z" fill="white" />
    </mask>
    <g mask="url(#mask1_19_2)">
      <path d="M179.2 142.019C179.2 130.195 176.024 124.711 170.807 120.427C168.311 118.371 165.136 116.314 158.784 112.887C151.752 109.116 144.72 105.689 137.46 102.091C127.706 97.4634 119.994 93.865 117.952 90.6086C117.271 89.4093 116.818 87.5242 116.818 84.4397C116.818 78.784 116.591 72.4438 126.799 72.4438C131.562 72.4438 137.007 72.9574 138.141 77.2419C138.595 78.9558 138.595 79.4694 138.595 82.2115V91.1229H175.344C175.57 81.8691 176.478 68.6733 168.311 60.9616C160.826 53.5926 148.349 52.736 137.234 52.0506V32H118.405V52.0502C107.29 52.7357 95.2675 54.1069 87.5546 61.1328C79.8419 67.9875 78.9347 77.2416 78.9347 85.8099C78.9347 98.1491 82.1104 103.461 87.5546 107.917C92.3184 111.858 100.031 115.8 101.392 116.485C107.971 119.913 114.549 123.512 121.355 126.939C130.882 131.909 137.234 134.822 139.275 138.764C140.41 140.991 140.41 144.419 140.41 144.933C140.41 149.217 141.09 155.558 127.479 155.558C119.54 155.558 116.818 152.816 115.91 150.074C115.003 147.846 115.23 145.276 115.23 144.59V136.021H76.8931C76.4394 153.501 77.3469 161.384 86.4208 168.067C95.0406 174.237 105.929 175.265 109.786 175.608C112.508 175.95 115.457 176.293 118.405 176.465V198.4H137.234V176.465C148.803 175.436 159.238 174.237 168.084 168.068C178.066 161.213 179.2 151.616 179.2 142.019Z" fill="#23A061" />
    </g>
  </g>
</svg>
