<svg width="120" height="120" viewBox="0 0 120 120" fill="none" xmlns="http://www.w3.org/2000/svg">
<g clip-path="url(#clip0_1229_45)">
<path d="M60 120C93.1371 120 120 93.1371 120 60C120 26.8629 93.1371 0 60 0C26.8629 0 0 26.8629 0 60C0 93.1371 26.8629 120 60 120Z" fill="url(#paint0_linear_1229_45)"/>
<path d="M92.3655 41.6933C93.3394 44.376 93.8378 47.2417 93.8149 50.1863C93.759 56.706 91.1526 62.7935 86.4764 67.3299C86.367 67.4341 86.2577 67.5384 86.1483 67.6452C85.0524 68.7004 83.9107 69.7353 82.7537 70.7219L82.5299 70.9661H82.4613C80.5618 72.5782 78.5555 74.114 76.4984 75.5406C76.4577 75.5711 76.417 75.6016 76.3738 75.627C72.8444 78.0681 69.0887 80.2269 65.2134 82.0501L65.1626 82.0756C65.1041 82.101 65.0507 82.129 64.9948 82.1544C62.5918 83.2758 60.1126 84.2827 57.6257 85.1473L57.5469 85.1702C57.5469 85.1702 57.5342 85.1727 57.5265 85.1752C56.5476 85.516 55.6169 85.8186 54.7117 86.0957C58.7878 89.9277 64.0768 92.0535 69.7371 92.1069C75.8093 92.1705 81.5128 89.8286 85.7873 85.5338C85.9169 85.4016 86.0466 85.2693 86.1789 85.1371C86.3416 84.9693 86.5069 84.8015 86.6696 84.6311C86.7688 84.5294 86.868 84.4277 86.9646 84.326C87.2011 84.0793 87.4401 83.8326 87.6715 83.586C96.5815 74.1776 102.224 65.0922 102.224 59.9989C102.224 55.8694 98.5165 49.1183 92.3655 41.6933Z" fill="white"/>
<path d="M69.7218 93.8869C63.1512 93.8234 57.0459 91.1788 52.5299 86.4416L52.3748 86.2788C51.2941 85.1397 50.2388 83.9573 49.237 82.7647L49.003 82.5308V82.4824C47.3934 80.5575 45.8652 78.5335 44.4514 76.4662L44.4361 76.4433C44.398 76.3848 44.37 76.339 44.3395 76.2933C41.9645 72.8122 39.8464 69.0895 38.0512 65.2346C38.0054 65.138 37.9545 65.0337 37.9037 64.9244C36.7899 62.4985 35.8059 60.0473 34.9769 57.6316C34.6387 56.6526 34.3234 55.6711 34.031 54.6896C30.1583 58.8039 28.0096 64.1387 27.9639 69.832C27.913 75.8559 30.2219 81.5213 34.4633 85.7881C34.593 85.9203 34.7226 86.0475 34.8523 86.1746C35.0481 86.3704 35.2414 86.5636 35.4397 86.7569C35.5363 86.8535 35.6355 86.9476 35.7321 87.0417C36.0042 87.3061 36.2738 87.5681 36.5433 87.8274C45.9033 96.773 54.9354 102.438 59.9981 102.438C64.1353 102.438 70.9271 98.6521 78.3775 92.3867C75.7228 93.3733 72.8825 93.8869 69.9583 93.8869H69.7218Z" fill="white"/>
<path d="M33.5175 52.6731C33.6268 52.5664 33.7362 52.4596 33.8481 52.3528C34.9567 51.2873 36.1086 50.2448 37.2707 49.2556L37.3292 49.2022C39.2719 47.5469 41.3137 45.9729 43.3963 44.526C43.4319 44.5006 43.4777 44.4701 43.5234 44.4395C47.0757 41.9781 50.8645 39.7938 54.7728 37.9554C54.8287 37.9274 54.8872 37.8995 54.9432 37.8715L54.9889 37.8511C57.3639 36.7425 59.7872 35.7559 62.2029 34.9142L62.4063 34.843C63.3471 34.5124 64.3134 34.1997 65.2898 33.9022C61.2112 30.0702 55.9221 27.9444 50.2593 27.891C44.182 27.8376 38.4836 30.1668 34.2117 34.4641C34.0744 34.6014 33.9371 34.7413 33.8023 34.8786C33.6497 35.0363 33.4946 35.1914 33.3446 35.349C33.2251 35.4685 33.1107 35.5906 32.9937 35.7101C32.775 35.939 32.5538 36.1703 32.3376 36.3992C23.42 45.8127 17.7725 54.9032 17.7725 59.999C17.7725 64.1285 21.4824 70.8822 27.6335 78.3046C26.657 75.6245 26.1586 72.7588 26.1841 69.8167C26.2375 63.297 28.8413 57.2095 33.5175 52.6731Z" fill="white"/>
<path d="M67.4688 33.5564L67.624 33.7191C68.7123 34.8684 69.765 36.0508 70.7592 37.2332L70.9932 37.4672V37.5155C72.5799 39.4124 74.0954 41.4162 75.5041 43.4733L75.5448 43.5318C78.0164 47.1451 80.2007 50.9847 82.034 54.9464L82.0925 55.071C83.2063 57.4994 84.1903 59.9532 85.0193 62.3663L85.0294 62.3968C85.3626 63.3606 85.6728 64.3344 85.9677 65.3083C89.8379 61.1966 91.9866 55.8618 92.0349 50.171C92.0857 44.1446 89.7769 38.4792 85.5355 34.2124C85.4032 34.0802 85.271 33.9505 85.1413 33.8183C84.943 33.6225 84.7472 33.4267 84.5489 33.2309C84.4599 33.147 84.3734 33.0605 84.2844 32.9766C84.0072 32.7045 83.7275 32.4324 83.4478 32.168C74.0928 23.2249 65.0608 17.5596 59.9981 17.5596C55.8609 17.5596 49.0691 21.3458 41.6187 27.6113C44.3446 26.5992 47.2688 26.0831 50.2769 26.111C56.845 26.172 62.9528 28.8166 67.4688 33.5564Z" fill="white"/>
</g>
<defs>
<linearGradient id="paint0_linear_1229_45" x1="119.88" y1="0.119504" x2="0.559416" y2="119.441" gradientUnits="userSpaceOnUse">
<stop stop-color="#B94DFF"/>
<stop offset="0.22" stop-color="#A14DFF"/>
<stop offset="0.49" stop-color="#8C4DFF"/>
<stop offset="0.75" stop-color="#804DFF"/>
<stop offset="1" stop-color="#7C4DFF"/>
</linearGradient>
<clipPath id="clip0_1229_45">
<rect width="120" height="120" fill="white"/>
</clipPath>
</defs>
</svg>
