<svg xmlns="http://www.w3.org/2000/svg" width="256" height="256" viewBox="0 0 80 80" fill="none">
  <path d="M40 69C58.2876 69 73 54.2876 73 36C73 17.7124 58.2876 3 40 3C21.7124 3 7 17.7124 7 36C7 54.2876 21.7124 69 40 69Z" fill="#1B1B1B"/>
  <path d="M23.584 10C32.4788 10 39.6894 17.2107 39.6895 26.1055C39.6895 34.3695 33.4654 41.178 25.4492 42.1025C27.8482 42.4764 30.7413 43.4485 33.335 45.3691C36.5916 47.7807 39.3263 51.6544 40.0332 57.5654C40.2099 55.0483 41.0903 51.7993 43.2383 48.8975C45.5521 45.7718 49.2902 43.1104 55.0293 42.1738C46.6372 41.619 40.002 34.638 40.002 26.1055C40.002 17.2107 47.2126 10.0001 56.1074 10H75.8838C78.4714 10 80.0679 12.8256 78.7324 15.042L44.4941 71.8633C42.5561 75.0794 37.8968 75.091 35.9424 71.8848L1.2832 15.0264C-0.0595158 12.8236 1.52577 10.0001 4.10547 10H23.584Z" fill="#CCFF00" stroke="#1B1B1B" stroke-width="2"/>
</svg>
